<svg width="100" height="100" viewBox="0 0 100 100" fill="none" xmlns="http://www.w3.org/2000/svg">
  <path d="M50 12.5C44.0833 12.5 39.1667 14.5833 35.4167 18.3333C31.6667 22.0833 29.5833 27 29.5833 32.9167C29.5833 36.25 30.4167 39.375 31.875 42.2917C33.3333 45.2083 35.4167 47.5 38.125 49.1667C35.8333 51.0417 34.0625 53.3333 32.8125 56.0417C31.5625 58.75 30.9375 61.6667 30.9375 64.7917C30.9375 70.2083 32.8125 74.7917 36.5625 78.5417C40.3125 82.2917 44.8958 84.1667 50.3125 84.1667C55.7292 84.1667 60.3125 82.2917 64.0625 78.5417C67.8125 74.7917 69.6875 70.2083 69.6875 64.7917C69.6875 61.6667 69.0625 58.75 67.8125 56.0417C66.5625 53.3333 64.7917 51.0417 62.5 49.1667C65.2083 47.5 67.2917 45.2083 68.75 42.2917C70.2083 39.375 70.9375 36.25 70.9375 32.9167C70.9375 27 68.8542 22.0833 64.6875 18.3333C60.5208 14.5833 55.9167 12.5 50 12.5ZM50 79.1667C46.0417 79.1667 42.7083 77.7083 40 74.7917C37.2917 71.875 35.9375 68.3333 35.9375 64.1667C35.9375 60 37.2917 56.4583 40 53.5417C42.7083 50.625 46.0417 49.1667 50 49.1667C53.9583 49.1667 57.2917 50.625 60 53.5417C62.7083 56.4583 64.0625 60 64.0625 64.1667C64.0625 68.3333 62.7083 71.875 60 74.7917C57.2917 77.7083 53.9583 79.1667 50 79.1667ZM50 44.1667C46.0417 44.1667 42.7083 42.7083 40 39.7917C37.2917 36.875 35.9375 33.3333 35.9375 29.1667C35.9375 25 37.2917 21.4583 40 18.5417C42.7083 15.625 46.0417 14.1667 50 14.1667C53.9583 14.1667 57.2917 15.625 60 18.5417C62.7083 21.4583 64.0625 25 64.0625 29.1667C64.0625 33.3333 62.7083 36.875 60 39.7917C57.2917 42.7083 53.9583 44.1667 50 44.1667Z" fill="#F47B20"/>
</svg>
