<svg width="100" height="100" viewBox="0 0 100 100" fill="none" xmlns="http://www.w3.org/2000/svg">
  <circle cx="50" cy="50" r="50" fill="#FFF5EA"/>
  <path d="M50 85C69.33 85 85 69.33 85 50C85 30.67 69.33 15 50 15C30.67 15 15 30.67 15 50C15 69.33 30.67 85 50 85Z" fill="#FFF5EA" stroke="#F97316" stroke-width="2"/>
  <path d="M35 40C35 37.2386 37.2386 35 40 35H60C62.7614 35 65 37.2386 65 40V60C65 62.7614 62.7614 65 60 65H40C37.2386 65 35 62.7614 35 60V40Z" fill="#F97316"/>
  <path d="M45 50C45 47.2386 47.2386 45 50 45C52.7614 45 55 47.2386 55 50V70C55 72.7614 52.7614 75 50 75C47.2386 75 45 72.7614 45 70V50Z" fill="#F97316"/>
  <path d="M30 50C30 47.2386 32.2386 45 35 45H65C67.7614 45 70 47.2386 70 50C70 52.7614 67.7614 55 65 55H35C32.2386 55 30 52.7614 30 50Z" fill="#F97316"/>
  <path d="M40 25C40 22.2386 42.2386 20 45 20H55C57.7614 20 60 22.2386 60 25V35C60 37.7614 57.7614 40 55 40H45C42.2386 40 40 37.7614 40 35V25Z" fill="#F97316"/>
</svg>
